<?xml version="1.0" encoding="UTF-8" standalone="no"?>
<!-- Created by:"Roy Pfund";
	License:"http://creativecommons.org/licenses/publicdomain/"; -->

<svg
   xmlns:dc="http://purl.org/dc/elements/1.1/"
   xmlns:cc="http://creativecommons.org/ns#"
   xmlns:rdf="http://www.w3.org/1999/02/22-rdf-syntax-ns#"
   xmlns:svg="http://www.w3.org/2000/svg"
   xmlns="http://www.w3.org/2000/svg"
   xmlns:sodipodi="http://sodipodi.sourceforge.net/DTD/sodipodi-0.dtd"
   xmlns:inkscape="http://www.inkscape.org/namespaces/inkscape"
   width="512"
   height="512"
   version="1.1"
   id="svg2"
   inkscape:version="0.48.3.1 r9886"
   sodipodi:docname="Home_Iconx.svg">
  <metadata
     id="metadata11">
    <rdf:RDF>
      <cc:Work
         rdf:about="">
        <dc:format>image/svg+xml</dc:format>
        <dc:type
           rdf:resource="http://purl.org/dc/dcmitype/StillImage" />
        <dc:title></dc:title>
      </cc:Work>
    </rdf:RDF>
  </metadata>
  <defs
     id="defs9" />
  <sodipodi:namedview
     pagecolor="#ffffff"
     bordercolor="#666666"
     borderopacity="1"
     objecttolerance="10"
     gridtolerance="10"
     guidetolerance="10"
     inkscape:pageopacity="0"
     inkscape:pageshadow="2"
     inkscape:window-width="1280"
     inkscape:window-height="942"
     id="namedview7"
     showgrid="false"
     inkscape:zoom="1.8787879"
     inkscape:cx="256"
     inkscape:cy="362.45161"
     inkscape:window-x="0"
     inkscape:window-y="27"
     inkscape:window-maximized="1"
     inkscape:current-layer="svg2" />
  <path
     inkscape:connector-curvature="0"
     id="path5"
     d="m 16,240 240,-192 96,72 0,0.46774 49.06452,40.45161 L 400,160 l 96,80 -48,0 0,192 -120,0 0.57272,-0.11126 -96.04047,0.0405 L 232,432 64,432 64,240 z"
     style="fill:#f5f5f5;fill-opacity:1;stroke:#ffffff;stroke-width:12;stroke-linecap:butt;stroke-linejoin:round;stroke-miterlimit:4;stroke-opacity:1;stroke-dasharray:none"
     sodipodi:nodetypes="cccccccccccccccc" />
  <path
     inkscape:connector-curvature="0"
     id="path5-1"
     d="m -543.72881,566.23729 240,-192 96,72 0,-32 48,0 0,72 95.999996,80 -47.999996,0 0,192 -120,0 2.16949,0.54237 -96,0 -2.16949,-0.54237 -168,0 0,-192 z"
     style="fill:#f5f5f5;fill-opacity:1;stroke:#ffffff;stroke-width:12;stroke-linecap:butt;stroke-linejoin:round;stroke-miterlimit:4;stroke-opacity:1;stroke-dasharray:none"
     sodipodi:nodetypes="cccccccccccccccc" />
</svg>
